#!OML:ASF H:\Pregnant\Project 1\Capture day 1\Session 1\femalepreg.ASF
:FULLY-SPECIFIED
:DEGREES
679
root 2.52218 0.90544 19.9357 104.428 -83.8572 -203.878
lowerback 10.6952 -2.43698 9.79469
upperback 2.3358 -2.23334 2.68398
thorax -3.79065 -1.27591 -2.36199
lowerneck -26.1362 1.9217 0.418206
upperneck 29.9343 0.0118699 6.95241
head 14.7888 1.04424 2.80542
rclavicle 2.62396e-014 3.39301e-014
rhumerus -46.4975 34.2796 -81.0679
rradius 27.0604
rwrist 2.48567
rhand -1.29963 -6.15785
rfingers 7.12502
rthumb 204.345 -214.632
lclavicle 2.62396e-014 3.39301e-014
lhumerus -50.7073 -18.2165 79.5756
lradius 27.5589
lwrist 5.06772
lhand 186.905 185.822
lfingers 7.12502
lthumb 212.186 -147.01
rfemur 2.13659 21.2314 32.616
rtibia 24.9632
rfoot 17.3027 -5.16532
rtoes 17.5062
lfemur -3.17494 -12.1956 -6.0731
ltibia 35.6456
lfoot 10.9311 0.788511
ltoes -0.552311
680
root 2.52216 0.904129 19.9366 104.337 -83.7955 -203.736
lowerback 10.6794 -2.4295 9.88069
upperback 2.30122 -2.21176 2.69557
thorax -3.81848 -1.26764 -2.40013
lowerneck -26.1125 1.91169 0.405282
upperneck 29.9265 0.00171641 6.9575
head 14.7806 1.03852 2.80676
rclavicle -1.51076e-014 1.36043e-014
rhumerus -46.5109 34.2047 -81.0516
rradius 27.0429
rwrist 2.52315
rhand -1.30732 -6.14202
rfingers 7.12502
rthumb 204.338 -214.617
lclavicle -1.51076e-014 1.36043e-014
lhumerus -50.7331 -18.2466 79.5955
lradius 27.5492
lwrist 5.01692
lhand 186.873 185.772
lfingers 7.12502
lthumb 212.155 -147.053
rfemur 1.98527 21.1534 32.6468
rtibia 25.0912
rfoot 17.1115 -4.94419
rtoes 16.954
lfemur -3.30922 -12.1559 -5.99384
ltibia 35.777
lfoot 10.9058 0.669012
ltoes -0.797424
681
root 2.52242 0.902841 19.9375 104.263 -83.7359 -203.6
lowerback 10.6541 -2.41973 9.96359
upperback 2.26248 -2.18811 2.7075
thorax -3.84515 -1.25833 -2.43674
lowerneck -26.0894 1.90034 0.391006
upperneck 29.9205 -0.0102749 6.96327
head 14.7734 1.03194 2.80834
rclavicle -6.36111e-014 5.45043e-014
rhumerus -46.5258 34.1259 -81.0323
rradius 27.0248
rwrist 2.56286
rhand -1.31152 -6.12325
rfingers 7.12502
rthumb 204.334 -214.599
lclavicle -6.36111e-014 5.45043e-014
lhumerus -50.7592 -18.2781 79.6165
lradius 27.5389
lwrist 4.96553
lhand 186.845 185.723
lfingers 7.12502
lthumb 212.128 -147.097
rfemur 1.8128 21.0731 32.6709
rtibia 25.2319
rfoot 16.8992 -4.70995
rtoes 16.3664
lfemur -3.45842 -12.1119 -5.91476
ltibia 35.914
lfoot 10.8741 0.53974
ltoes -1.07877
682
root 2.52298 0.90159 19.9382 104.209 -83.6793 -203.475
lowerback 10.6198 -2.4079 10.0414
upperback 2.22016 -2.163 2.71992
thorax -3.87021 -1.24824 -2.47048
lowerneck -26.0675 1.88797 0.374983
upperneck 29.9163 -0.0235124 6.96996
head 14.7673 1.02477 2.81046
rclavicle -7.55382e-014 1.24309e-013
rhumerus -46.5421 34.046 -81.0105
rradius 27.0066
rwrist 2.60284
rhand -1.31312 -6.10338
rfingers 7.12502
rthumb 204.332 -214.579
lclavicle -7.55382e-014 1.24309e-013
lhumerus -50.7845 -18.309 79.6379
lradius 27.528
lwrist 4.91527
lhand 186.824 185.676
lfingers 7.12502
lthumb 212.108 -147.139
rfemur 1.61852 20.9885 32.6871
rtibia 25.3879
rfoot 16.665 -4.4603
rtoes 15.7382
lfemur -3.6209 -12.0625 -5.83711
ltibia 36.0552
lfoot 10.8361 0.397093
ltoes -1.39659
683
root 2.52386 0.900337 19.939 104.175 -83.6275 -203.356
lowerback 10.5746 -2.39452 10.1124
upperback 2.1742 -2.13755 2.73291
thorax -3.89281 -1.23788 -2.50019
lowerneck -26.0469 1.87528 0.357129
upperneck 29.9131 -0.0368067 6.97748
head 14.762 1.01751 2.81331
rclavicle -1.02573e-013 1.84472e-013
rhumerus -46.5594 33.9687 -80.9872
rradius 26.9888
rwrist 2.64038
rhand -1.29164 -6.07831
rfingers 7.12502
rthumb 204.353 -214.551
lclavicle -1.02573e-013 1.84472e-013
lhumerus -50.8087 -18.3372 79.659
lradius 27.517
lwrist 4.86827
lhand 186.808 185.634
lfingers 7.12502
lthumb 212.093 -147.179
rfemur 1.39896 20.8973 32.6928
rtibia 25.5616
rfoot 16.4086 -4.19377
rtoes 15.0625
lfemur -3.79806 -12.0087 -5.76221
ltibia 36.1992
lfoot 10.7916 0.240899
ltoes -1.74349
